<?xml version="1.0" encoding="UTF-8"?>
<svg xmlns="http://www.w3.org/2000/svg" xmlns:xlink="http://www.w3.org/1999/xlink" width="3750" height="3750" viewBox="0 0 3750 3750">

<path fill-rule="nonzero" fill="rgb(0%, 0%, 0%)" fill-opacity="1" d="M 1855.96875 576.550781 C 1813.148438 576.550781 1801.289062 579.179688 1792.589844 587.910156 C 1785.089844 595.410156 1779 597.460938 1779 592.691406 C 1779 581.179688 1715.679688 581.128906 1708.570312 592.640625 C 1705.550781 597.511719 1698.71875 599.75 1693.308594 597.699219 C 1687.960938 595.660156 1676.398438 599.070312 1667.789062 605.398438 C 1659.21875 611.730469 1646.320312 616.890625 1639.199219 616.890625 C 1632.089844 616.890625 1617.019531 625.261719 1605.730469 635.449219 C 1594.429688 645.679688 1562.929688 665.71875 1535.710938 680.011719 C 1508.488281 694.289062 1487.230469 710.339844 1488.480469 715.648438 C 1489.75 720.910156 1486.921875 722.960938 1482.339844 720.128906 C 1473.871094 714.871094 1432.609375 753.421875 1432.609375 766.550781 C 1432.609375 770.449219 1425.199219 773.570312 1416.140625 773.570312 C 1407.078125 773.570312 1399.628906 777.070312 1399.628906 781.261719 C 1399.628906 785.449219 1392.230469 791.269531 1383.121094 794.148438 C 1374.058594 797.070312 1366.609375 803.890625 1366.609375 809.25 C 1366.609375 814.699219 1359.199219 823.71875 1350.148438 829.378906 C 1341.089844 835.03125 1333.640625 844.621094 1333.640625 850.679688 C 1333.640625 856.71875 1326.53125 868.121094 1317.878906 875.949219 C 1309.210938 883.839844 1299.859375 899.230469 1297.089844 910.238281 C 1294.359375 921.230469 1288.710938 930.269531 1284.710938 930.269531 C 1280.621094 930.269531 1278.378906 939.421875 1279.640625 950.660156 C 1280.910156 962.46875 1278.378906 968.929688 1273.699219 966.011719 C 1269.21875 963.28125 1267.269531 966.089844 1269.320312 972.339844 C 1271.371094 978.570312 1267.960938 988.851562 1261.628906 995.140625 C 1255.289062 1001.480469 1252.179688 1011.679688 1254.511719 1017.898438 C 1256.851562 1024.128906 1256.171875 1029.210938 1252.949219 1029.230469 C 1249.640625 1029.25 1240.859375 1045.050781 1233.320312 1064.320312 C 1218.210938 1102.859375 1163.171875 1314.78125 1157.410156 1356.539062 C 1155.460938 1371 1151.570312 1386.519531 1148.839844 1390.980469 C 1146.109375 1395.460938 1141.53125 1411.410156 1138.671875 1426.511719 C 1131.460938 1464.96875 1127.628906 1738.519531 1134.378906 1738.570312 C 1137.398438 1738.589844 1140.910156 1756.210938 1142.179688 1777.738281 C 1143.441406 1799.261719 1147.921875 1818.039062 1152.03125 1819.46875 C 1156.21875 1820.929688 1157.878906 1826.679688 1155.730469 1832.199219 C 1150.480469 1845.859375 1173.5 1953.808594 1183.019531 1960.210938 C 1187.210938 1963.039062 1190.519531 1975.269531 1190.429688 1987.398438 C 1190.429688 2015.101562 1227.171875 2134.390625 1235.980469 2134.390625 C 1239.589844 2134.390625 1240.371094 2139.941406 1237.839844 2146.71875 C 1235.109375 2153.738281 1238.808594 2161.210938 1246.308594 2164.089844 C 1253.519531 2166.921875 1257.5 2172.269531 1255.078125 2176.121094 C 1250.789062 2183.140625 1299.320312 2291.339844 1310.460938 2299.550781 C 1319.128906 2305.980469 1358.621094 2365.359375 1354.191406 2365.359375 C 1352.148438 2365.359375 1365.488281 2386.691406 1383.960938 2412.769531 C 1402.421875 2438.859375 1431.128906 2480.601562 1447.78125 2505.550781 C 1464.441406 2530.5 1480.878906 2552.160156 1484.28125 2553.679688 C 1487.691406 2555.140625 1490.421875 2559.621094 1490.421875 2563.601562 C 1490.421875 2573.871094 1551.828125 2660.191406 1583.800781 2694.828125 C 1598.679688 2710.941406 1619.609375 2739.769531 1630.320312 2758.863281 C 1641.019531 2777.957031 1653.441406 2791.300781 1657.949219 2788.515625 C 1662.429688 2785.691406 1663.601562 2787.542969 1660.390625 2792.703125 C 1657.269531 2797.769531 1660.390625 2812.3125 1666.820312 2824.917969 C 1685.121094 2859.421875 1754.609375 2935.242188 1763.121094 2929.980469 C 1767.210938 2927.449219 1768.671875 2929.980469 1766.339844 2936.507812 C 1764 2942.644531 1770.519531 2954.996094 1780.839844 2964.046875 C 1791.171875 2973.105469 1809.828125 2992.6875 1822.261719 3007.542969 C 1835.578125 3023.449219 1848.78125 3032.078125 1854.441406 3028.582031 C 1860.378906 3024.882812 1861.839844 3026.246094 1858.230469 3031.992188 C 1850.339844 3044.832031 1868.410156 3076.511719 1879.691406 3069.546875 C 1884.75 3066.429688 1886.5 3067.597656 1883.679688 3072.175781 C 1880.859375 3076.753906 1883.679688 3087.527344 1890.398438 3096.140625 C 1896.929688 3104.75 1902.441406 3120.117188 1902.539062 3130.320312 C 1902.539062 3140.53125 1906.730469 3148.898438 1911.5 3148.898438 C 1916.371094 3148.898438 1918.128906 3152.296875 1915.589844 3156.445312 C 1913.058594 3160.597656 1915.589844 3165.828125 1921.238281 3168.125 L 1921.339844 3168.175781 C 1938.238281 3174.988281 1945.371094 3174.148438 1940.320312 3165.964844 C 1937.679688 3161.738281 1940.320312 3155.605469 1945.191406 3152.324219 C 1950.839844 3148.808594 1952.691406 3149.898438 1949.46875 3154.992188 C 1946.550781 3159.757812 1950.441406 3165.886719 1957.171875 3168.636719 C 1977.660156 3176.476562 1990.878906 3174.296875 1977.058594 3165.363281 C 1966.078125 3158.289062 1966.109375 3157.355469 1977.058594 3157.257812 C 1983.980469 3157.179688 1998.28125 3151.101562 2008.820312 3143.714844 C 2023.910156 3133.140625 2025.601562 3128.722656 2016.808594 3122.976562 C 2008.140625 3117.316406 2011.539062 3110.648438 2031.710938 3093.121094 C 2053.578125 3074.152344 2071.75 3041.316406 2069.308594 3025.164062 C 2069.308594 3022.921875 2074.960938 3014.144531 2082.550781 3005.730469 C 2090.148438 2997.351562 2095.199219 2989.929688 2093.769531 2989.265625 C 2089.480469 2987.316406 2100.980469 2959.28125 2139.890625 2876.714844 C 2208.039062 2732 2222.019531 2699.519531 2227.878906 2672.679688 C 2231.101562 2657.988281 2237.230469 2643.859375 2241.378906 2641.269531 C 2245.558594 2638.730469 2248.96875 2628.410156 2249.070312 2618.46875 C 2249.128906 2608.519531 2269.398438 2560.511719 2294.128906 2511.738281 C 2318.859375 2462.980469 2336.800781 2423.101562 2334 2423.101562 C 2331.171875 2423.101562 2335.558594 2415.691406 2343.808594 2406.589844 C 2352 2397.519531 2356.339844 2390.070312 2353.460938 2390.070312 C 2350.539062 2390.070312 2357.550781 2368.96875 2368.910156 2343.160156 C 2380.320312 2317.339844 2390.808594 2286.019531 2392.171875 2273.53125 C 2393.539062 2261.050781 2399.378906 2245.03125 2405.25 2237.988281 C 2411.101562 2230.980469 2413.921875 2217.800781 2411.589844 2208.699219 C 2409.25 2199.640625 2410.410156 2192.140625 2414.308594 2192.140625 C 2422.890625 2192.140625 2452.5 2127.890625 2467.570312 2076.648438 C 2473.609375 2056.25 2487.730469 2014.488281 2499.039062 1983.871094 C 2510.320312 1953.261719 2517.628906 1928.199219 2515.238281 1928.199219 C 2512.910156 1928.199219 2515.339844 1922.851562 2520.800781 1916.320312 C 2526.25 1909.789062 2536.128906 1884.71875 2542.800781 1860.648438 C 2574.089844 1747.828125 2579.390625 1726.769531 2580.898438 1708.570312 C 2581.878906 1697.839844 2584.988281 1689.03125 2588.011719 1689.03125 C 2591.03125 1689.03125 2595.410156 1681.628906 2597.828125 1672.519531 C 2600.171875 1663.460938 2599 1657.949219 2595.199219 1660.300781 C 2591.398438 1662.628906 2585.949219 1660.300781 2583.019531 1656.011719 C 2580.089844 1651.328125 2583.019531 1648.511719 2588.570312 1649.679688 C 2595.289062 1651.039062 2599.070312 1644.808594 2598.480469 1633.371094 C 2597.511719 1623.160156 2600.238281 1614.789062 2603.550781 1614.789062 C 2606.859375 1614.789062 2608.519531 1605.148438 2607.25 1593.289062 C 2605.980469 1581.460938 2609 1552.058594 2614.070312 1528.011719 C 2620.601562 1496.890625 2620.699219 1473.371094 2615.039062 1446.449219 C 2610.269531 1425.660156 2609.101562 1408.601562 2612.410156 1408.601562 C 2620.210938 1408.601562 2618.359375 1315.160156 2610.46875 1309.230469 C 2604.621094 1304.941406 2595.628906 1254 2593 1210.660156 C 2592.019531 1197.269531 2587.449219 1190.820312 2579.410156 1192.238281 C 2569.859375 1193.898438 2570.25 1192.238281 2581.359375 1183.179688 C 2589.25 1177.039062 2594.140625 1170.378906 2592.238281 1168.480469 C 2590.289062 1166.539062 2587.371094 1154.628906 2585.609375 1141.898438 C 2583.960938 1129.179688 2577.238281 1115.371094 2570.660156 1111.238281 C 2564.039062 1107.148438 2561.5 1103.640625 2564.71875 1103.640625 C 2568.03125 1103.570312 2567.25 1094.488281 2563.058594 1083.449219 C 2557.898438 1069.761719 2558.390625 1062.398438 2564.71875 1060.289062 C 2570.46875 1058.351562 2566.769531 1047.46875 2555.070312 1031.660156 C 2544.691406 1017.601562 2538.71875 1002.039062 2541.789062 997.070312 C 2544.910156 992.109375 2542.960938 988.109375 2537.699219 988.109375 C 2532.050781 988.109375 2529.808594 995.03125 2532.339844 1004.570312 C 2534.679688 1013.628906 2533.308594 1021.070312 2529.128906 1021.070312 C 2525.039062 1021.070312 2521.71875 1011.820312 2521.71875 1000.441406 C 2521.71875 989.109375 2526.011719 979.851562 2531.269531 979.851562 C 2537.019531 979.851562 2535.359375 973.808594 2527.179688 964.75 C 2519.679688 956.46875 2513.53125 945.109375 2513.53125 939.53125 C 2513.53125 933.980469 2509.828125 931.640625 2505.25 934.460938 C 2500.671875 937.289062 2497.070312 931.929688 2497.070312 922.589844 C 2497.070312 913.238281 2489.859375 898.460938 2481.21875 889.761719 C 2472.550781 881.089844 2467.921875 871.179688 2470.941406 867.808594 C 2473.960938 864.410156 2469.96875 863.921875 2462.949219 866.550781 C 2452.929688 870.148438 2450.429688 867.519531 2453.410156 856.171875 C 2458.179688 837.800781 2423.851562 788.679688 2411.21875 795.871094 C 2406.25 798.699219 2405.078125 797.820312 2408.589844 794.019531 C 2415.890625 785.941406 2375.058594 740.558594 2360.449219 740.558594 C 2355 740.558594 2348.628906 733.160156 2346.261719 724.101562 C 2343.921875 715.039062 2336.019531 707.589844 2328.789062 707.589844 C 2321.589844 707.589844 2315.648438 703.890625 2315.648438 699.308594 C 2315.648438 694.730469 2308.640625 691.03125 2300.050781 691.03125 C 2291.46875 691.03125 2282.230469 685.371094 2279.558594 678.390625 C 2274.5 665.109375 2180.238281 616.929688 2158.941406 616.71875 C 2152.128906 616.648438 2130.859375 611.171875 2111.679688 604.441406 C 2059.941406 586.410156 2025.480469 581.859375 1910.660156 577.910156 C 1888.488281 576.941406 1870.769531 576.640625 1856.5 576.550781 Z M 1886.371094 703.300781 C 1920.53125 702.328125 1965.671875 705.640625 2030.601562 711.78125 C 2119.269531 720.148438 2198.21875 770.96875 2238.449219 845.628906 C 2246.441406 860.371094 2255.980469 872.460938 2259.75 872.460938 C 2263.550781 872.460938 2264.71875 875.578125 2262.28125 879.46875 C 2259.941406 883.371094 2265.398438 894.441406 2274.46875 904.199219 C 2283.53125 913.960938 2288.75 921.960938 2285.988281 921.960938 C 2279.75 921.960938 2315.28125 973.421875 2327.019531 981.421875 C 2331.699219 984.628906 2335.789062 992.019531 2335.890625 997.878906 C 2335.890625 1003.730469 2348.960938 1034.539062 2364.570312 1066.289062 C 2392.589844 1123.25 2394.449219 1127.878906 2396.488281 1145.121094 C 2397.460938 1149.890625 2401.261719 1151.648438 2405.738281 1148.820312 C 2410.21875 1146.101562 2411.980469 1148.820312 2409.539062 1155.058594 C 2407.199219 1161.289062 2411.199219 1188.390625 2418.410156 1215.320312 C 2425.710938 1242.238281 2433.628906 1275.398438 2436.03125 1289.011719 C 2438.460938 1302.621094 2444.109375 1316.078125 2448.710938 1318.921875 C 2453.78125 1322.039062 2453.96875 1325.929688 2449.679688 1328.839844 C 2445.5 1331.460938 2440.921875 1358.808594 2439.671875 1389.640625 C 2438.410156 1420.46875 2436.070312 1466.128906 2434.511719 1491.078125 C 2432.949219 1516.03125 2430.519531 1557.761719 2429.25 1583.808594 C 2427.878906 1609.839844 2424.089844 1631.179688 2420.679688 1631.230469 C 2417.269531 1631.269531 2414.539062 1644.480469 2414.539062 1660.628906 C 2414.539062 1681.390625 2417.558594 1688.480469 2424.859375 1684.78125 C 2430.5 1681.960938 2429.339844 1684.78125 2422.21875 1690.441406 C 2415.109375 1696.480469 2404.96875 1721.769531 2399.71875 1746.710938 C 2394.460938 1771.671875 2384.039062 1819.921875 2376.519531 1853.941406 C 2369.019531 1887.960938 2362.398438 1926.921875 2361.910156 1940.53125 C 2360.941406 1954.140625 2357.238281 1968 2352.660156 1971.339844 C 2347.5 1975.140625 2348.28125 1977.480469 2354.710938 1977.480469 C 2361.621094 1977.558594 2360.449219 1982.730469 2351.101562 1993.730469 C 2343.5 2002.601562 2336.339844 2014.648438 2335.140625 2020.511719 C 2333.980469 2026.359375 2330.269531 2040.160156 2327.058594 2051.070312 C 2322.480469 2066.578125 2323.75 2069.578125 2332.910156 2064.871094 C 2339.238281 2061.550781 2338.070312 2063.890625 2330.078125 2070.609375 C 2322.191406 2077.140625 2314.839844 2092 2313.871094 2103.640625 C 2312.890625 2115.289062 2309.199219 2123.011719 2305.589844 2120.808594 C 2301.980469 2118.570312 2299.058594 2124.320312 2299.058594 2133.539062 C 2299.058594 2142.800781 2288.011719 2180.550781 2274.5 2217.558594 C 2260.980469 2254.578125 2251.75 2287.839844 2253.960938 2291.410156 C 2256.199219 2295.019531 2251.910156 2303.980469 2244.410156 2311.441406 C 2234.289062 2321.570312 2233.191406 2327.410156 2240.230469 2334.398438 C 2245.390625 2339.558594 2249.578125 2347.660156 2249.480469 2352.421875 C 2249.410156 2357.191406 2245.78125 2355.539062 2241.390625 2348.71875 C 2236.039062 2340.441406 2233.308594 2339.761719 2233.210938 2346.679688 C 2233.210938 2365.050781 2231.648438 2369.28125 2224.539062 2373.648438 C 2220.738281 2375.988281 2215.871094 2387.179688 2213.769531 2398.421875 C 2206.75 2436.261719 2204.21875 2443.570312 2196.808594 2448.960938 C 2192.71875 2451.878906 2188.921875 2463.371094 2188.328125 2474.429688 C 2187.359375 2485.488281 2180.828125 2504.398438 2172.878906 2516.46875 C 2164.988281 2528.53125 2160.898438 2538.410156 2163.820312 2538.410156 C 2166.75 2538.410156 2164.800781 2543.96875 2158.859375 2550.800781 C 2153.210938 2557.609375 2151.058594 2563.191406 2154.179688 2563.191406 C 2157.300781 2563.191406 2154.179688 2571.46875 2146.96875 2581.511719 C 2139.960938 2591.589844 2134.078125 2610.140625 2134.078125 2622.730469 C 2134.078125 2635.328125 2130.191406 2645.640625 2125.410156 2645.640625 C 2120.640625 2645.640625 2118.980469 2649.339844 2121.808594 2653.921875 C 2124.628906 2658.5 2122.980469 2662.199219 2118.199219 2662.199219 C 2113.429688 2662.199219 2110.019531 2665.019531 2110.800781 2668.429688 C 2111.769531 2671.839844 2102.320312 2695.03125 2090.269531 2719.980469 C 2078.230469 2744.929688 2068.351562 2771.613281 2068.261719 2779.28125 C 2068.210938 2786.976562 2064.851562 2795.316406 2060.761719 2797.855469 C 2051.5 2803.605469 2003.609375 2900.8125 1985.609375 2950.386719 L 1985.699219 2950.386719 C 1974.03125 2982.535156 1952.878906 3005.867188 1952.878906 2986.578125 C 1952.878906 2982.777344 1943.429688 2969.460938 1931.890625 2957.03125 C 1920.371094 2944.601562 1913.78125 2934.433594 1917.238281 2934.433594 C 1920.75 2934.433594 1915.289062 2928.683594 1905.210938 2921.59375 C 1895.128906 2914.578125 1886.878906 2904 1886.878906 2898.183594 C 1886.878906 2882.742188 1827.320312 2830.976562 1812.730469 2833.746094 C 1804.359375 2835.304688 1803.378906 2833.746094 1809.808594 2829.554688 C 1816.730469 2824.78125 1815.359375 2818.03125 1804.648438 2804.84375 C 1796.558594 2794.847656 1787.019531 2789.304688 1783.460938 2792.507812 C 1779.859375 2795.722656 1779.371094 2791.535156 1782.191406 2783.9375 C 1785.699219 2774.195312 1783.269531 2769.492188 1774.789062 2769.492188 C 1767.878906 2769.492188 1764.171875 2766.277344 1766.609375 2762.378906 C 1769.039062 2758.484375 1760.179688 2745.691406 1747.070312 2733.980469 C 1733.929688 2722.269531 1716.921875 2699.550781 1709.269531 2683.441406 C 1701.671875 2667.339844 1692.410156 2656 1688.730469 2658.269531 C 1685.03125 2660.511719 1677.46875 2648.441406 1671.871094 2631.390625 C 1657.410156 2587.300781 1639 2561.710938 1625.449219 2566.910156 C 1619.121094 2569.339844 1615.910156 2567.878906 1618.539062 2563.789062 C 1624.289062 2554.53125 1606.550781 2513.808594 1596.800781 2513.808594 C 1592.898438 2513.808594 1583.578125 2500.839844 1576.011719 2484.960938 C 1568.410156 2469.089844 1558.980469 2456.070312 1555.019531 2456.070312 C 1551.019531 2456.070312 1550.140625 2452.371094 1552.871094 2447.789062 C 1555.691406 2443.210938 1554.039062 2439.511719 1549.269531 2439.511719 C 1544.488281 2439.511719 1540.5 2434.148438 1540.5 2427.621094 C 1540.5 2421.101562 1533.390625 2410.691406 1524.589844 2404.570312 C 1515.820312 2398.429688 1504.160156 2383.421875 1498.570312 2371.140625 C 1492.921875 2358.859375 1485.269531 2348.789062 1481.460938 2348.789062 C 1477.660156 2348.789062 1474.539062 2343.621094 1474.539062 2337.421875 C 1474.539062 2331.191406 1469.378906 2321.761719 1463.011719 2316.480469 C 1456.679688 2311.210938 1441.71875 2286.390625 1429.890625 2261.398438 C 1416.238281 2232.570312 1404.929688 2218.128906 1398.929688 2221.839844 C 1392.5 2225.828125 1390.941406 2221.839844 1394.160156 2209.859375 C 1397.570312 2196.949219 1395.128906 2192.078125 1385.191406 2191.980469 C 1373.289062 2191.980469 1373.089844 2190.710938 1383.828125 2183.121094 C 1393.179688 2176.488281 1393.691406 2173.359375 1385.878906 2170.171875 C 1380.128906 2167.828125 1377.890625 2162.179688 1380.710938 2157.53125 C 1383.539062 2152.859375 1380.710938 2146.03125 1375.058594 2142.339844 C 1369.121094 2138.640625 1363.71875 2125.140625 1363.140625 2112.339844 C 1361.769531 2082.390625 1342.230469 2010.691406 1335.441406 2010.691406 C 1332.621094 2010.691406 1330.671875 1998.609375 1331.160156 1983.871094 C 1331.160156 1969.128906 1327.941406 1954.328125 1322.878906 1951 C 1316.839844 1947 1318.011719 1944.859375 1326.089844 1944.671875 C 1336.621094 1944.671875 1336.730469 1943.308594 1327.070312 1936.96875 C 1320.640625 1932.878906 1314.019531 1921.171875 1312.460938 1910.941406 C 1310.910156 1900.71875 1306.429688 1888.351562 1302.550781 1883.460938 C 1298.648438 1878.589844 1296.898438 1866.230469 1298.558594 1856.019531 C 1300.210938 1845.820312 1298.558594 1837.449219 1295.441406 1837.449219 C 1292.03125 1837.449219 1288.808594 1825.410156 1288.320312 1810.660156 C 1287.351562 1795.929688 1284.820312 1759.710938 1281.699219 1730.21875 C 1278.578125 1700.738281 1276.339844 1672.890625 1276.730469 1668.351562 C 1278.390625 1650.359375 1283.648438 1523.878906 1285.789062 1449.828125 C 1287.058594 1406.738281 1292.609375 1355.859375 1298.070312 1336.808594 C 1303.628906 1317.78125 1306.058594 1300.160156 1303.53125 1297.648438 C 1301 1295.121094 1303.53125 1293.070312 1309.078125 1293.070312 C 1314.640625 1293.070312 1318.53125 1286.550781 1317.75 1278.628906 C 1314.929688 1250.929688 1317.75 1234.371094 1325.640625 1238.960938 C 1329.730469 1241.488281 1331 1235.550781 1328.46875 1225.769531 C 1324.859375 1212.128906 1326.519531 1209.570312 1335.480469 1214.640625 C 1344.351562 1219.710938 1344.839844 1218.839844 1337.71875 1211.039062 C 1327.558594 1200 1332.070312 1169.308594 1343.960938 1169.308594 C 1347.949219 1169.308594 1351.269531 1156.339844 1351.269531 1140.460938 C 1351.269531 1124.589844 1354.871094 1111.558594 1359.160156 1111.558594 C 1363.539062 1111.558594 1369.53125 1098.191406 1372.589844 1081.871094 C 1376.480469 1061.058594 1380.191406 1055.539062 1385.171875 1063.339844 C 1390.53125 1071.71875 1392.480469 1071.910156 1393.359375 1064.320312 C 1394.328125 1058.671875 1395.011719 1050.980469 1395.601562 1047.25 C 1396.570312 1043.550781 1403.101562 1033.941406 1411.050781 1026 C 1426.851562 1010.199219 1430.289062 1000.578125 1417.28125 1008.640625 C 1403.308594 1017.308594 1408.21875 1002.890625 1423.519531 990.371094 C 1431.5 983.839844 1433.308594 980.921875 1427.609375 983.75 C 1421.960938 986.570312 1417.289062 987.449219 1417.289062 985.601562 C 1417.289062 979.75 1447.691406 946.949219 1451.269531 948.949219 C 1453.121094 950.019531 1451.269531 947.191406 1448.148438 942.808594 C 1444.550781 938.429688 1449.128906 929.140625 1457.800781 922.230469 C 1466.660156 915.308594 1475.160156 904.28125 1476.578125 897.710938 C 1479.789062 882.75 1519.261719 847.78125 1532.949219 847.78125 C 1538.601562 847.78125 1549.179688 841.351562 1556.519531 833.378906 C 1563.820312 825.390625 1596.578125 806.210938 1629.25 790.691406 C 1661.929688 775.171875 1686.820312 759.460938 1684.53125 755.75 C 1682.191406 752.050781 1686.570312 751.359375 1694.171875 754.289062 C 1702.640625 757.5 1710.910156 754.289062 1715.46875 746.300781 C 1719.941406 738.308594 1728.289062 735.078125 1736.410156 738.210938 C 1744.980469 741.53125 1747.890625 740.160156 1744.398438 734.511719 C 1741.089844 729.25 1744.398438 726.429688 1753.261719 727.691406 C 1761.148438 728.859375 1786.351562 723.210938 1809.289062 715.160156 C 1830.230469 707.761719 1853.398438 703.929688 1887.570312 703.441406 Z M 1902.730469 877.570312 C 1815.808594 878.550781 1748.089844 894.890625 1700.671875 927.460938 C 1667.730469 950.078125 1581.378906 1039.941406 1576.171875 1057.039062 C 1573.25 1066.679688 1563.449219 1091.101562 1554.378906 1111.300781 C 1545.320312 1131.511719 1536.800781 1153.78125 1535.5 1160.789062 C 1529.171875 1194.769531 1519.671875 1290.390625 1521.5 1301.339844 C 1522.679688 1308.148438 1524.820312 1330.710938 1526.378906 1351.46875 C 1529.691406 1395.539062 1558.230469 1448.171875 1607.96875 1501.691406 C 1647.050781 1543.738281 1693.96875 1570.101562 1764.980469 1589.890625 C 1837.058594 1609.96875 1938.171875 1603.019531 2023.429688 1572.160156 C 2060.699219 1558.679688 2100.050781 1539.578125 2110.820312 1529.679688 C 2121.589844 1519.789062 2139.488281 1506.890625 2150.589844 1501.039062 C 2174.121094 1488.621094 2212.441406 1434.28125 2209.078125 1418.070312 C 2207.820312 1411.941406 2210.738281 1409.410156 2215.609375 1412.429688 C 2224.179688 1417.691406 2236.640625 1393.890625 2247.769531 1350.910156 C 2254.691406 1324.320312 2253.519531 1188.128906 2246.21875 1158.910156 C 2243.101562 1146.558594 2235.441406 1136.460938 2229.148438 1136.460938 C 2221.941406 1136.460938 2219.230469 1130.621094 2221.941406 1120.410156 C 2233.261719 1077.089844 2124.078125 946.890625 2039.710938 903.140625 C 1992.25 878.53125 1984.449219 877.070312 1902.78125 877.609375 Z M 2472.480469 914.730469 C 2475.308594 914.730469 2478.621094 914.730469 2481.640625 916.28125 C 2488.160156 918.921875 2486.21875 920.871094 2476.671875 921.25 C 2468 921.25 2463.109375 919.691406 2465.851562 916.96875 C 2467.210938 915.609375 2469.640625 914.820312 2472.570312 914.730469 Z M 1926.640625 994.96875 C 1960.691406 994.96875 1992.300781 999.839844 2011.871094 1009.210938 C 2058.480469 1031.5 2125.230469 1159.789062 2127.398438 1231.269531 C 2128.570312 1268.910156 2109.160156 1350.871094 2099.109375 1350.871094 C 2095.410156 1350.871094 2092.390625 1354.671875 2092.390625 1359.441406 C 2092.390625 1373.410156 2039.53125 1441.109375 2030.628906 1438.519531 C 2026.148438 1437.261719 2017.769531 1440.859375 2012.050781 1446.511719 C 2006.308594 1452.261719 1982.199219 1462.351562 1958.390625 1469.019531 C 1878.25 1491.421875 1774.921875 1491.058594 1732.910156 1468.039062 C 1695.808594 1447.878906 1657.609375 1389.359375 1651.210938 1342.789062 C 1641.761719 1274.191406 1640.660156 1226.730469 1648.390625 1221.96875 C 1652.179688 1219.628906 1655.5 1209.558594 1655.691406 1199.621094 C 1655.691406 1189.691406 1665.140625 1166.671875 1676.230469 1148.53125 C 1687.339844 1130.378906 1699 1109.980469 1702.109375 1103.179688 C 1707.371094 1091.761719 1755 1044.121094 1780.488281 1024.839844 C 1806.410156 1005.230469 1869.929688 994.171875 1926.671875 994.730469 Z M 2564.75 1137.328125 C 2565.71875 1136.359375 2567.769531 1138.398438 2571.769531 1142.488281 C 2577.410156 1148.039062 2579.949219 1154.761719 2577.410156 1157.289062 C 2574.878906 1159.820312 2570.300781 1155.238281 2567.199219 1147.128906 C 2564.949219 1141.289062 2563.980469 1138.070312 2564.761719 1137.359375 Z M 2401.199219 1779.710938 C 2403.25 1779.710938 2407.140625 1783.421875 2409.96875 1788 C 2412.789062 1792.570312 2411.140625 1796.28125 2406.359375 1796.28125 C 2401.589844 1796.28125 2397.601562 1792.570312 2397.601562 1788 C 2397.601562 1783.421875 2399.25 1779.710938 2401.199219 1779.710938 Z M 2401.199219 1779.710938 "/>
</svg>
